<svg width="156" height="23" viewBox="0 0 156 23" fill="none" xmlns="http://www.w3.org/2000/svg">
<path d="M31.4846 16H33.2486V11.828H37.6166V10.344H33.2486V7.628H37.8826V6.088H31.4846V16ZM44.9701 9.28H43.2901V12.976C43.2901 13.872 42.7861 14.796 41.7221 14.796C40.6441 14.796 40.4621 13.802 40.4621 13.004V9.28H38.7821V13.48C38.7821 14.852 39.5101 16.196 41.2601 16.196C42.2541 16.196 43.0521 15.594 43.3461 14.922H43.3741V16H44.9701V9.28ZM47.0145 16H48.6945V5.416H47.0145V16ZM50.7606 16H52.4406V5.416H50.7606V16ZM57.9787 16H59.6587V12.304C59.6587 11.408 60.1627 10.484 61.2267 10.484C62.3047 10.484 62.4867 11.478 62.4867 12.276V16H64.1667V11.8C64.1667 10.428 63.4387 9.084 61.6887 9.084C60.6947 9.084 59.8967 9.686 59.6027 10.358H59.5747V9.28H57.9787V16ZM70.2991 16H71.8671V11.912C71.8671 10.568 71.2791 9.084 68.8711 9.084C67.8491 9.084 66.7851 9.448 66.0291 10.148L66.8971 11.17C67.3311 10.736 68.0171 10.4 68.7311 10.4C69.5711 10.4 70.2711 10.806 70.2711 11.632V11.8C68.1711 11.8 65.6511 12.08 65.6511 14.082C65.6511 15.65 67.0931 16.168 68.1711 16.168C69.1231 16.168 69.9211 15.734 70.2571 15.146H70.2991V16ZM70.2711 13.172C70.2711 14.236 69.6551 14.894 68.5071 14.894C67.9331 14.894 67.3311 14.698 67.3311 14.054C67.3311 13.06 68.8291 12.934 69.8931 12.934H70.2711V13.172ZM81.8464 9.084C80.8384 9.084 80.0824 9.546 79.6344 10.358C79.2564 9.602 78.5704 9.084 77.5344 9.084C76.4564 9.084 75.7424 9.7 75.4484 10.358H75.4204V9.28H73.8244V16H75.5044V12.304C75.5044 11.408 75.9664 10.484 76.9744 10.484C77.8284 10.484 78.2204 11.114 78.2204 11.94V16H79.9004V12.332C79.9004 11.464 80.3344 10.484 81.3844 10.484C82.4624 10.484 82.6444 11.478 82.6444 12.276V16H84.3244V11.8C84.3244 10.428 83.5964 9.084 81.8464 9.084ZM87.5675 11.968C87.6375 11.03 88.4355 10.344 89.4295 10.344C90.5215 10.344 91.0115 11.1 91.0115 11.968H87.5675ZM92.6915 12.724C92.6915 10.302 91.3195 9.084 89.4435 9.084C87.4135 9.084 85.8875 10.512 85.8875 12.682C85.8875 14.866 87.4275 16.196 89.4995 16.196C90.7735 16.196 91.7255 15.748 92.3835 14.852L91.2635 13.956C90.8855 14.488 90.3255 14.824 89.4855 14.824C88.5055 14.824 87.6375 14.124 87.5675 13.172H92.6775C92.6915 13.018 92.6915 12.878 92.6915 12.724ZM97.9025 16H103.881V14.432H99.6665V6.088H97.9025V16ZM104.331 12.612C104.331 14.726 105.955 16.196 107.985 16.196C110.015 16.196 111.639 14.726 111.639 12.612C111.639 10.498 110.015 9.084 107.985 9.084C105.955 9.084 104.331 10.498 104.331 12.612ZM106.039 12.612C106.039 11.562 106.655 10.456 107.985 10.456C109.315 10.456 109.931 11.562 109.931 12.612C109.931 13.662 109.315 14.796 107.985 14.796C106.655 14.796 106.039 13.662 106.039 12.612ZM113.268 16H114.948V12.402C114.948 11.912 115.242 10.596 116.754 10.596C116.908 10.596 117.048 10.61 117.272 10.666V9.126C117.16 9.098 116.992 9.084 116.866 9.084C115.984 9.084 115.27 9.63 114.906 10.4H114.878V9.28H113.268V16ZM119.409 11.968C119.479 11.03 120.277 10.344 121.271 10.344C122.363 10.344 122.853 11.1 122.853 11.968H119.409ZM124.533 12.724C124.533 10.302 123.161 9.084 121.285 9.084C119.255 9.084 117.729 10.512 117.729 12.682C117.729 14.866 119.269 16.196 121.341 16.196C122.615 16.196 123.567 15.748 124.225 14.852L123.105 13.956C122.727 14.488 122.167 14.824 121.327 14.824C120.347 14.824 119.479 14.124 119.409 13.172H124.519C124.533 13.018 124.533 12.878 124.533 12.724ZM134.182 9.084C133.174 9.084 132.418 9.546 131.97 10.358C131.592 9.602 130.906 9.084 129.87 9.084C128.792 9.084 128.078 9.7 127.784 10.358H127.756V9.28H126.16V16H127.84V12.304C127.84 11.408 128.302 10.484 129.31 10.484C130.164 10.484 130.556 11.114 130.556 11.94V16H132.236V12.332C132.236 11.464 132.67 10.484 133.72 10.484C134.798 10.484 134.98 11.478 134.98 12.276V16H136.66V11.8C136.66 10.428 135.932 9.084 134.182 9.084Z" fill="white"/>
<path d="M11.6302 2.15626C6.3752 2.08529 2.08517 6.37533 2.15614 11.6303C2.22622 16.6701 6.32983 20.7737 11.3696 20.8438C16.6255 20.9156 20.9146 16.6256 20.8427 11.3706C20.7736 6.32996 16.67 2.22634 11.6302 2.15626ZM17.3092 16.8569C17.2913 16.8763 17.2694 16.8915 17.2449 16.9014C17.2205 16.9113 17.1942 16.9158 17.1679 16.9144C17.1416 16.913 17.1159 16.9059 17.0926 16.8935C17.0694 16.8811 17.0492 16.8637 17.0334 16.8426C16.6316 16.3169 16.1395 15.8668 15.5801 15.5133C14.4364 14.7793 12.9873 14.375 11.4999 14.375C10.0125 14.375 8.56335 14.7793 7.41964 15.5133C6.8603 15.8666 6.36824 16.3166 5.96642 16.8421C5.95063 16.8632 5.93039 16.8806 5.90714 16.893C5.88389 16.9054 5.85819 16.9126 5.83187 16.9139C5.80555 16.9153 5.77925 16.9109 5.75484 16.901C5.73042 16.891 5.70849 16.8758 5.69059 16.8565C4.37244 15.4335 3.62576 13.5742 3.59364 11.6348C3.52042 7.26343 7.10743 3.60454 11.4806 3.59376C15.8537 3.58298 19.4061 7.13406 19.4061 11.5C19.4076 13.4862 18.6587 15.3996 17.3092 16.8569Z" fill="white"/>
<path d="M11.5 6.46875C10.6141 6.46875 9.81317 6.80072 9.24401 7.40402C8.67485 8.00732 8.39049 8.84152 8.45473 9.73682C8.585 11.5 9.95108 12.9375 11.5 12.9375C13.0489 12.9375 14.4123 11.5 14.5452 9.73727C14.6117 8.85051 14.3296 8.02395 13.751 7.40941C13.1796 6.80297 12.38 6.46875 11.5 6.46875Z" fill="white"/>
<path d="M149 11L152 14L155 11" stroke="white" stroke-linecap="round" stroke-linejoin="round"/>
</svg>
