<svg width="35" height="35" viewBox="0 0 35 35" fill="none" xmlns="http://www.w3.org/2000/svg">
<circle cx="17.5" cy="17.5" r="17.5" fill="#9E58FF"/>
<path d="M24.6875 9.59375H10.3125C9.12164 9.59375 8.15625 10.5591 8.15625 11.75V24.6875C8.15625 25.8784 9.12164 26.8438 10.3125 26.8438H24.6875C25.8784 26.8438 26.8438 25.8784 26.8438 24.6875V11.75C26.8438 10.5591 25.8784 9.59375 24.6875 9.59375Z" stroke="white" stroke-width="1.53788" stroke-linejoin="round"/>
<path d="M19.2969 17.5C19.8923 17.5 20.375 17.0173 20.375 16.4219C20.375 15.8264 19.8923 15.3438 19.2969 15.3438C18.7014 15.3438 18.2188 15.8264 18.2188 16.4219C18.2188 17.0173 18.7014 17.5 19.2969 17.5Z" fill="white"/>
<path d="M22.8906 17.5C23.4861 17.5 23.9688 17.0173 23.9688 16.4219C23.9688 15.8264 23.4861 15.3438 22.8906 15.3438C22.2952 15.3438 21.8125 15.8264 21.8125 16.4219C21.8125 17.0173 22.2952 17.5 22.8906 17.5Z" fill="white"/>
<path d="M19.2969 21.0938C19.8923 21.0938 20.375 20.6111 20.375 20.0156C20.375 19.4202 19.8923 18.9375 19.2969 18.9375C18.7014 18.9375 18.2188 19.4202 18.2188 20.0156C18.2188 20.6111 18.7014 21.0938 19.2969 21.0938Z" fill="white"/>
<path d="M22.8906 21.0938C23.4861 21.0938 23.9688 20.6111 23.9688 20.0156C23.9688 19.4202 23.4861 18.9375 22.8906 18.9375C22.2952 18.9375 21.8125 19.4202 21.8125 20.0156C21.8125 20.6111 22.2952 21.0938 22.8906 21.0938Z" fill="white"/>
<path d="M12.1094 21.0938C12.7048 21.0938 13.1875 20.6111 13.1875 20.0156C13.1875 19.4202 12.7048 18.9375 12.1094 18.9375C11.5139 18.9375 11.0312 19.4202 11.0312 20.0156C11.0312 20.6111 11.5139 21.0938 12.1094 21.0938Z" fill="white"/>
<path d="M15.7031 21.0938C16.2986 21.0938 16.7812 20.6111 16.7812 20.0156C16.7812 19.4202 16.2986 18.9375 15.7031 18.9375C15.1077 18.9375 14.625 19.4202 14.625 20.0156C14.625 20.6111 15.1077 21.0938 15.7031 21.0938Z" fill="white"/>
<path d="M12.1094 24.6875C12.7048 24.6875 13.1875 24.2048 13.1875 23.6094C13.1875 23.0139 12.7048 22.5312 12.1094 22.5312C11.5139 22.5312 11.0312 23.0139 11.0312 23.6094C11.0312 24.2048 11.5139 24.6875 12.1094 24.6875Z" fill="white"/>
<path d="M15.7031 24.6875C16.2986 24.6875 16.7812 24.2048 16.7812 23.6094C16.7812 23.0139 16.2986 22.5312 15.7031 22.5312C15.1077 22.5312 14.625 23.0139 14.625 23.6094C14.625 24.2048 15.1077 24.6875 15.7031 24.6875Z" fill="white"/>
<path d="M19.2969 24.6875C19.8923 24.6875 20.375 24.2048 20.375 23.6094C20.375 23.0139 19.8923 22.5312 19.2969 22.5312C18.7014 22.5312 18.2188 23.0139 18.2188 23.6094C18.2188 24.2048 18.7014 24.6875 19.2969 24.6875Z" fill="white"/>
<path d="M23.25 8.15625V9.59375M11.75 8.15625V9.59375V8.15625Z" stroke="white" stroke-width="1.53788" stroke-linecap="round" stroke-linejoin="round"/>
<path d="M26.8438 13.1875H8.15625" stroke="white" stroke-width="1.53788" stroke-linejoin="round"/>
</svg>
