<svg width="23" height="23" viewBox="0 0 23 23" fill="none" xmlns="http://www.w3.org/2000/svg">
<path d="M3.59375 6.82812V18.3281C3.59517 18.8042 3.78494 19.2605 4.12161 19.5971C4.45828 19.9338 4.9145 20.1236 5.39062 20.125H17.6094C18.0855 20.1236 18.5417 19.9338 18.8784 19.5971C19.2151 19.2605 19.4048 18.8042 19.4062 18.3281V6.82812" stroke="#E85555" stroke-width="1.5625" stroke-linecap="round" stroke-linejoin="round"/>
<path d="M19.5859 2.875H3.41406C2.71939 2.875 2.15625 3.43814 2.15625 4.13281V5.21094C2.15625 5.90561 2.71939 6.46875 3.41406 6.46875H19.5859C20.2806 6.46875 20.8438 5.90561 20.8438 5.21094V4.13281C20.8438 3.43814 20.2806 2.875 19.5859 2.875Z" stroke="#E85555" stroke-width="1.5625" stroke-linejoin="round"/>
<path d="M14.375 13.6562L11.5 16.5312L8.625 13.6562M11.5 15.538V10.0625" stroke="#E85555" stroke-width="1.5625" stroke-linecap="round" stroke-linejoin="round"/>
</svg>
