<svg width="35" height="35" viewBox="0 0 35 35" fill="none" xmlns="http://www.w3.org/2000/svg">
<circle cx="17.5" cy="17.5" r="17.5" fill="#9E58FF"/>
<path d="M21.0938 17.8652V25.5859C21.0938 26.6775 20.238 27.5625 19.1644 27.5625H10.8066C9.73076 27.5625 8.875 26.6775 8.875 25.5859V13.7266C8.87806 13.2033 9.08729 12.7023 9.45731 12.3323C9.82732 11.9623 10.3283 11.7531 10.8516 11.75H15.0796C15.226 11.7502 15.3708 11.7796 15.5057 11.8363C15.6406 11.8931 15.7628 11.9761 15.8653 12.0806L20.7685 17.067C20.9771 17.2803 21.0939 17.5668 21.0938 17.8652V17.8652Z" stroke="white" stroke-width="1.4375" stroke-linejoin="round"/>
<path d="M14.9844 11.75V16.6016C14.9883 16.9339 15.1221 17.2516 15.3572 17.4866C15.5922 17.7216 15.9098 17.8554 16.2422 17.8594H21.0938" stroke="white" stroke-width="1.4375" stroke-linecap="round" stroke-linejoin="round"/>
<path d="M13.9062 11.75V9.41406C13.9093 8.89079 14.1185 8.38982 14.4886 8.01981C14.8586 7.64979 15.3595 7.44056 15.8828 7.4375H20.1055C20.2526 7.4377 20.3983 7.46702 20.534 7.52377C20.6698 7.58051 20.793 7.66356 20.8965 7.76813L25.7998 12.7545C26.0082 12.9655 26.1251 13.2502 26.125 13.5469V21.2734C26.125 22.365 25.2692 23.25 24.1956 23.25H21.4531" stroke="white" stroke-width="1.4375" stroke-linejoin="round"/>
<path d="M20.0156 7.4375V12.2891C20.0196 12.6214 20.1534 12.9391 20.3884 13.1741C20.6234 13.4091 20.9411 13.5429 21.2734 13.5469H26.125" stroke="white" stroke-width="1.4375" stroke-linecap="round" stroke-linejoin="round"/>
</svg>
