<svg width="15" height="15" viewBox="0 0 15 15" fill="none" xmlns="http://www.w3.org/2000/svg">
<path d="M13.8281 4.92188H1.17188C0.985395 4.92188 0.806552 4.8478 0.674691 4.71593C0.542829 4.58407 0.46875 4.40523 0.46875 4.21875C0.46875 4.03227 0.542829 3.85343 0.674691 3.72157C0.806552 3.5897 0.985395 3.51563 1.17188 3.51562H13.8281C14.0146 3.51562 14.1934 3.5897 14.3253 3.72157C14.4572 3.85343 14.5312 4.03227 14.5312 4.21875C14.5312 4.40523 14.4572 4.58407 14.3253 4.71593C14.1934 4.8478 14.0146 4.92188 13.8281 4.92188ZM11.4844 8.20312H3.51562C3.32914 8.20312 3.1503 8.12905 3.01844 7.99718C2.88658 7.86532 2.8125 7.68648 2.8125 7.5C2.8125 7.31352 2.88658 7.13468 3.01844 7.00282C3.1503 6.87095 3.32914 6.79688 3.51562 6.79688H11.4844C11.6709 6.79688 11.8497 6.87095 11.9816 7.00282C12.1134 7.13468 12.1875 7.31352 12.1875 7.5C12.1875 7.68648 12.1134 7.86532 11.9816 7.99718C11.8497 8.12905 11.6709 8.20312 11.4844 8.20312ZM8.67188 11.4844H6.32812C6.14164 11.4844 5.9628 11.4103 5.83094 11.2784C5.69908 11.1466 5.625 10.9677 5.625 10.7812C5.625 10.5948 5.69908 10.4159 5.83094 10.2841C5.9628 10.1522 6.14164 10.0781 6.32812 10.0781H8.67188C8.85836 10.0781 9.0372 10.1522 9.16906 10.2841C9.30092 10.4159 9.375 10.5948 9.375 10.7812C9.375 10.9677 9.30092 11.1466 9.16906 11.2784C9.0372 11.4103 8.85836 11.4844 8.67188 11.4844Z" fill="#AAAAAA"/>
</svg>
