<svg width="23" height="23" viewBox="0 0 23 23" fill="none" xmlns="http://www.w3.org/2000/svg">
<path d="M11.5 3.59375C9.93629 3.59375 8.4077 4.05744 7.10753 4.92619C5.80735 5.79494 4.79399 7.02973 4.19558 8.47441C3.59718 9.91909 3.44061 11.5088 3.74567 13.0424C4.05073 14.5761 4.80373 15.9849 5.90944 17.0906C7.01515 18.1963 8.42391 18.9493 9.95757 19.2543C11.4912 19.5594 13.0809 19.4028 14.5256 18.8044C15.9703 18.206 17.2051 17.1927 18.0738 15.8925C18.9426 14.5923 19.4063 13.0637 19.4063 11.5C19.4063 9.40313 18.5733 7.39215 17.0906 5.90944C15.6079 4.42673 13.5969 3.59375 11.5 3.59375Z" stroke="#C989DD" stroke-width="1.75581" stroke-miterlimit="10"/>
<path d="M8.98438 9.08722C8.98438 9.08722 9.02211 8.30109 9.8635 7.62412C10.3626 7.22206 10.9609 7.10572 11.5 7.09763C11.991 7.09134 12.4294 7.17265 12.6918 7.29753C13.141 7.51136 14.0156 8.03335 14.0156 9.14337C14.0156 10.3113 13.252 10.8419 12.3818 11.4254C11.5117 12.0089 11.2754 12.6423 11.2754 13.2968" stroke="#C989DD" stroke-width="1.53634" stroke-miterlimit="10" stroke-linecap="round"/>
<path d="M11.2305 16.5312C11.7267 16.5312 12.1289 16.129 12.1289 15.6328C12.1289 15.1366 11.7267 14.7344 11.2305 14.7344C10.7343 14.7344 10.332 15.1366 10.332 15.6328C10.332 16.129 10.7343 16.5312 11.2305 16.5312Z" fill="#C989DD"/>
</svg>
