<svg width="23" height="24" viewBox="0 0 23 24" fill="none" xmlns="http://www.w3.org/2000/svg">
<path d="M11.5 4.09375C9.93629 4.09375 8.4077 4.55744 7.10753 5.42619C5.80735 6.29494 4.79399 7.52973 4.19558 8.97441C3.59718 10.4191 3.44061 12.0088 3.74567 13.5424C4.05073 15.0761 4.80373 16.4849 5.90944 17.5906C7.01515 18.6963 8.42391 19.4493 9.95757 19.7543C11.4912 20.0594 13.0809 19.9028 14.5256 19.3044C15.9703 18.706 17.2051 17.6927 18.0738 16.3925C18.9426 15.0923 19.4063 13.5637 19.4063 12C19.4063 9.90313 18.5733 7.89215 17.0906 6.40944C15.6079 4.92673 13.5969 4.09375 11.5 4.09375Z" stroke="white" stroke-width="1.75581" stroke-miterlimit="10"/>
<path d="M8.98438 9.58734C8.98438 9.58734 9.02211 8.80121 9.8635 8.12424C10.3626 7.72219 10.9609 7.60584 11.5 7.59775C11.991 7.59146 12.4294 7.67277 12.6918 7.79765C13.141 8.01148 14.0156 8.53347 14.0156 9.64349C14.0156 10.8115 13.252 11.342 12.3818 11.9255C11.5117 12.5091 11.2754 13.1425 11.2754 13.797" stroke="white" stroke-width="1.53634" stroke-miterlimit="10" stroke-linecap="round"/>
<path d="M11.2305 17.0312C11.7267 17.0312 12.1289 16.629 12.1289 16.1328C12.1289 15.6366 11.7267 15.2344 11.2305 15.2344C10.7343 15.2344 10.332 15.6366 10.332 16.1328C10.332 16.629 10.7343 17.0312 11.2305 17.0312Z" fill="white"/>
</svg>
