<svg width="32" height="32" viewBox="0 0 32 32" fill="none" xmlns="http://www.w3.org/2000/svg">
<path d="M16.0001 11.8345C13.7063 11.8345 11.8345 13.7064 11.8345 16.0001C11.8345 18.2939 13.7063 20.1657 16.0001 20.1657C18.2938 20.1657 20.1657 18.2939 20.1657 16.0001C20.1657 13.7064 18.2938 11.8345 16.0001 11.8345ZM28.4938 16.0001C28.4938 14.2751 28.5095 12.5657 28.4126 10.8439C28.3157 8.84385 27.8595 7.06885 26.397 5.60635C24.9313 4.14072 23.1595 3.6876 21.1595 3.59072C19.4345 3.49385 17.7251 3.50947 16.0032 3.50947C14.2782 3.50947 12.5688 3.49385 10.847 3.59072C8.84696 3.6876 7.07196 4.14385 5.60946 5.60635C4.14384 7.07198 3.69071 8.84385 3.59384 10.8439C3.49696 12.5689 3.51259 14.2782 3.51259 16.0001C3.51259 17.722 3.49696 19.4345 3.59384 21.1564C3.69071 23.1564 4.14696 24.9314 5.60946 26.3939C7.07509 27.8595 8.84696 28.3126 10.847 28.4095C12.572 28.5064 14.2813 28.4907 16.0032 28.4907C17.7282 28.4907 19.4376 28.5064 21.1595 28.4095C23.1595 28.3126 24.9345 27.8564 26.397 26.3939C27.8626 24.9282 28.3157 23.1564 28.4126 21.1564C28.5126 19.4345 28.4938 17.7251 28.4938 16.0001ZM16.0001 22.4095C12.4532 22.4095 9.59071 19.547 9.59071 16.0001C9.59071 12.4532 12.4532 9.59073 16.0001 9.59073C19.547 9.59073 22.4095 12.4532 22.4095 16.0001C22.4095 19.547 19.547 22.4095 16.0001 22.4095ZM22.672 10.8251C21.8438 10.8251 21.1751 10.1564 21.1751 9.32823C21.1751 8.5001 21.8438 7.83135 22.672 7.83135C23.5001 7.83135 24.1688 8.5001 24.1688 9.32823C24.1691 9.52487 24.1305 9.71963 24.0554 9.90135C23.9803 10.0831 23.87 10.2482 23.731 10.3872C23.5919 10.5263 23.4268 10.6365 23.2451 10.7117C23.0634 10.7868 22.8686 10.8253 22.672 10.8251Z" fill="url(#paint0_linear_3_384)"/>
<defs>
<linearGradient id="paint0_linear_3_384" x1="16.0034" y1="3.50854" x2="16.0034" y2="28.4917" gradientUnits="userSpaceOnUse">
<stop stop-color="#9E58FF"/>
<stop offset="1" stop-color="#C989DD"/>
</linearGradient>
</defs>
</svg>
