<svg width="32" height="32" viewBox="0 0 32 32" fill="none" xmlns="http://www.w3.org/2000/svg">
<path fill-rule="evenodd" clip-rule="evenodd" d="M30 16.0842C30 8.35298 23.7313 2.08423 16 2.08423C8.26875 2.08423 2 8.35298 2 16.0842C2 23.0717 7.11875 28.8636 13.8125 29.9149V20.1324H10.2569V16.0842H13.8125V12.9999C13.8125 9.49173 15.9031 7.55235 19.1006 7.55235C20.6325 7.55235 22.235 7.8261 22.235 7.8261V11.2717H20.4688C18.7306 11.2717 18.1869 12.3505 18.1869 13.4592V16.0842H22.0694L21.4494 20.1324H18.1875V29.9161C24.8813 28.8655 30 23.0736 30 16.0842Z" fill="url(#paint0_linear_3_388)"/>
<defs>
<linearGradient id="paint0_linear_3_388" x1="16" y1="2.08423" x2="16" y2="29.9161" gradientUnits="userSpaceOnUse">
<stop stop-color="#9E58FF"/>
<stop offset="1" stop-color="#C989DD"/>
</linearGradient>
</defs>
</svg>
