<svg width="22" height="22" viewBox="0 0 22 22" fill="none" xmlns="http://www.w3.org/2000/svg">
<path d="M8.06644 10.2667C7.09398 10.2667 6.16135 9.88037 5.47371 9.19273C4.78608 8.5051 4.39977 7.57247 4.39977 6.60001V3.66667C4.39977 3.47218 4.47703 3.28566 4.61456 3.14813C4.75209 3.0106 4.93861 2.93334 5.13311 2.93334H5.86644C6.06093 2.93334 6.24746 2.85608 6.38498 2.71855C6.52251 2.58103 6.59977 2.3945 6.59977 2.20001C6.59977 2.00552 6.52251 1.81899 6.38498 1.68146C6.24746 1.54394 6.06093 1.46667 5.86644 1.46667H5.13311C4.54963 1.46667 3.99005 1.69846 3.57747 2.11104C3.16489 2.52362 2.93311 3.0832 2.93311 3.66667V6.60001C2.93405 7.42848 3.13607 8.24435 3.52183 8.97753C3.90758 9.71072 4.46553 10.3393 5.14777 10.8093C5.80325 11.3872 6.33483 12.0919 6.71042 12.8809C7.08602 13.6699 7.29784 14.5269 7.33311 15.4C7.33311 16.7615 7.87394 18.0671 8.83662 19.0298C9.79931 19.9925 11.105 20.5333 12.4664 20.5333C13.8279 20.5333 15.1336 19.9925 16.0963 19.0298C17.0589 18.0671 17.5998 16.7615 17.5998 15.4V14.564C18.2911 14.3855 18.8935 13.961 19.2942 13.3701C19.6949 12.7792 19.8664 12.0625 19.7764 11.3542C19.6864 10.6459 19.3412 9.9948 18.8055 9.52284C18.2698 9.05087 17.5804 8.79049 16.8664 8.79049C16.1525 8.79049 15.463 9.05087 14.9273 9.52284C14.3916 9.9948 14.0464 10.6459 13.9565 11.3542C13.8665 12.0625 14.038 12.7792 14.4387 13.3701C14.8394 13.961 15.4418 14.3855 16.1331 14.564V15.4C16.1331 16.3725 15.7468 17.3051 15.0592 17.9927C14.3715 18.6804 13.4389 19.0667 12.4664 19.0667C11.494 19.0667 10.5613 18.6804 9.87371 17.9927C9.18608 17.3051 8.79977 16.3725 8.79977 15.4C8.83689 14.5258 9.05101 13.6682 9.42915 12.8791C9.8073 12.0901 10.3416 11.3859 10.9998 10.8093C11.6793 10.3377 12.2344 9.70837 12.6175 8.97529C13.0007 8.2422 13.2005 7.42718 13.1998 6.60001V3.66667C13.1998 3.0832 12.968 2.52362 12.5554 2.11104C12.1428 1.69846 11.5832 1.46667 10.9998 1.46667H10.2664C10.0719 1.46667 9.88542 1.54394 9.74789 1.68146C9.61037 1.81899 9.53311 2.00552 9.53311 2.20001C9.53311 2.3945 9.61037 2.58103 9.74789 2.71855C9.88542 2.85608 10.0719 2.93334 10.2664 2.93334H10.9998C11.1943 2.93334 11.3808 3.0106 11.5183 3.14813C11.6558 3.28566 11.7331 3.47218 11.7331 3.66667V6.60001C11.7331 7.08152 11.6383 7.55832 11.454 8.00318C11.2697 8.44804 10.9996 8.85225 10.6592 9.19273C10.3187 9.53321 9.91447 9.8033 9.46961 9.98757C9.02475 10.1718 8.54795 10.2667 8.06644 10.2667ZM16.8664 13.2C16.4775 13.2 16.1044 13.0455 15.8293 12.7704C15.5543 12.4954 15.3998 12.1223 15.3998 11.7333C15.3998 11.3444 15.5543 10.9713 15.8293 10.6963C16.1044 10.4212 16.4775 10.2667 16.8664 10.2667C17.2554 10.2667 17.6285 10.4212 17.9035 10.6963C18.1786 10.9713 18.3331 11.3444 18.3331 11.7333C18.3331 12.1223 18.1786 12.4954 17.9035 12.7704C17.6285 13.0455 17.2554 13.2 16.8664 13.2Z" fill="white"/>
</svg>
