<svg width="35" height="35" viewBox="0 0 35 35" fill="none" xmlns="http://www.w3.org/2000/svg">
<circle cx="17.5" cy="17.5" r="17.5" fill="white"/>
<path d="M20.3749 23.25V23.9688C20.3749 24.7312 20.072 25.4625 19.5328 26.0017C18.9937 26.5408 18.2624 26.8438 17.4999 26.8438C16.7374 26.8438 16.0062 26.5408 15.467 26.0017C14.9278 25.4625 14.6249 24.7312 14.6249 23.9688V23.25M25.2121 21.7869C24.0585 20.375 23.2441 19.6563 23.2441 15.7638C23.2441 12.1992 21.4238 10.9293 19.9257 10.3125C19.7267 10.2307 19.5394 10.043 19.4787 9.83857C19.2159 8.94418 18.4792 8.15625 17.4999 8.15625C16.5206 8.15625 15.7835 8.94463 15.5234 9.83947C15.4627 10.0461 15.2754 10.2307 15.0764 10.3125C13.5764 10.9302 11.758 12.1956 11.758 15.7638C11.7558 19.6563 10.9413 20.375 9.78773 21.7869C9.30976 22.3718 9.72843 23.25 10.5644 23.25H24.4399C25.2714 23.25 25.6874 22.3691 25.2121 21.7869Z" stroke="#C989DD" stroke-width="1.4375" stroke-linecap="round" stroke-linejoin="round"/>
</svg>
