<svg width="23" height="23" viewBox="0 0 23 23" fill="none" xmlns="http://www.w3.org/2000/svg">
<path d="M11.6302 2.15626C6.37527 2.08529 2.08523 6.37533 2.1562 11.6303C2.22628 16.6701 6.3299 20.7737 11.3697 20.8438C16.6255 20.9156 20.9147 16.6256 20.8428 11.3706C20.7736 6.32996 16.67 2.22634 11.6302 2.15626ZM17.3093 16.8569C17.2914 16.8763 17.2694 16.8915 17.245 16.9014C17.2206 16.9113 17.1943 16.9158 17.168 16.9144C17.1417 16.913 17.116 16.9059 17.0927 16.8935C17.0695 16.8811 17.0492 16.8637 17.0334 16.8426C16.6316 16.3169 16.1396 15.8668 15.5802 15.5133C14.4365 14.7793 12.9873 14.375 11.5 14.375C10.0126 14.375 8.56341 14.7793 7.4197 15.5133C6.86036 15.8666 6.3683 16.3166 5.96648 16.8421C5.95069 16.8632 5.93045 16.8806 5.9072 16.893C5.88395 16.9054 5.85826 16.9126 5.83193 16.9139C5.80561 16.9153 5.77931 16.9109 5.7549 16.901C5.73048 16.891 5.70855 16.8758 5.69066 16.8565C4.3725 15.4335 3.62582 13.5742 3.5937 11.6348C3.52048 7.26343 7.10749 3.60454 11.4806 3.59376C15.8538 3.58298 19.4062 7.13406 19.4062 11.5C19.4077 13.4862 18.6587 15.3996 17.3093 16.8569Z" fill="white"/>
<path d="M11.5001 6.46875C10.6142 6.46875 9.81329 6.80072 9.24413 7.40402C8.67497 8.00732 8.39061 8.84152 8.45485 9.73682C8.58513 11.5 9.9512 12.9375 11.5001 12.9375C13.049 12.9375 14.4124 11.5 14.5454 9.73727C14.6118 8.85051 14.3297 8.02395 13.7511 7.40941C13.1797 6.80297 12.3801 6.46875 11.5001 6.46875Z" fill="white"/>
</svg>
